<svg id="Layer_1" data-name="Layer 1" xmlns="http://www.w3.org/2000/svg" viewBox="0 0 117.83 112.1"><defs><style>.cls-1{fill:#272525;}</style></defs><title>icon</title><g id="_Grupo_" data-name="&lt;Grupo&gt;"><path id="_Trazado_compuesto_" data-name="&lt;Trazado compuesto&gt;" class="cls-1" d="M1279.76,434.7a1.8,1.8,0,0,0,2.87,1l4.74-3.75v23.14h-5.94a1.8,1.8,0,0,0-1.8,1.8v5.81a1.8,1.8,0,0,0,1.8,1.8h24.37a1.81,1.81,0,0,0,1.8-1.8v-5.81a1.8,1.8,0,0,0-1.8-1.8h-5.91v-35a1.8,1.8,0,0,0-1.8-1.8h-7.65a1.78,1.78,0,0,0-1,.32L1279,425.9a1.79,1.79,0,0,0-.74,1.87Zm10.74-14.35h7.39v36.75h7.71v5.41h-24v-5.41h7.74V427.84l-7.73,6.11-1.42-6.48Z" transform="translate(-1232.12 -395.92)"/><path id="_Trazado_compuesto_2" data-name="&lt;Trazado compuesto&gt;" class="cls-1" d="M1232.21,488.12a1.73,1.73,0,0,0,1.5,1.17l15.25,1.24,0.47,14.15a1.73,1.73,0,0,0,2.88,1.23l28.37-25.58L1282,484a3.93,3.93,0,0,0,3.6,2.9,4.27,4.27,0,0,0,3.25-1.74l5-6.17a2.16,2.16,0,0,1,1.67-.81,2.13,2.13,0,0,1,1.46.57l5.9,5.36a4.46,4.46,0,0,0,3,1.28,3.42,3.42,0,0,0,2.12-.74l20.52,22.75a1.73,1.73,0,0,0,3-1l1.62-13.84,15.2-1.41a1.73,1.73,0,0,0,1.12-2.88l-25.22-28a2,2,0,0,1,.08-0.19,2.14,2.14,0,0,1,1.38-1l7.75-1.81a3.77,3.77,0,0,0,2-6.67L1330,445a2.16,2.16,0,0,1-.61-1.6,2.13,2.13,0,0,1,.76-1.53l6-5.21a3.77,3.77,0,0,0-1.35-6.82l-7.55-2.53a2.12,2.12,0,0,1-1.32-2.84l2.91-7.41a4.15,4.15,0,0,0-.22-3.94,3.93,3.93,0,0,0-4.14-1.47l-7.86,1.27a2.13,2.13,0,0,1-2.49-1.9l-0.87-7.91c-0.28-2.61-2-3.78-3.63-3.78a4.61,4.61,0,0,0-2.74,1l-6.37,4.78a2.17,2.17,0,0,1-3.09-.52L1293,398a4.14,4.14,0,0,0-3.39-2.05,4,4,0,0,0-3.54,2.57l-3.42,7.19a2.16,2.16,0,0,1-3,1l-7-3.79a3.93,3.93,0,0,0-4.82.4,4.29,4.29,0,0,0-1.09,3.27l0.32,8a2.15,2.15,0,0,1-.59,1.59,2.17,2.17,0,0,1-1.59.65l-8-.1a4,4,0,0,0-3.67,1.85,4.09,4.09,0,0,0,.24,4.15l4,6.9a2.13,2.13,0,0,1-.89,3l-7.09,3.61a3.77,3.77,0,0,0-.33,6.94l6.73,4.26a2.13,2.13,0,0,1,.61,3.07l-4.61,6.5a3.78,3.78,0,0,0,2.95,6.3l3.2,0.26-25.25,22.77A1.73,1.73,0,0,0,1232.21,488.12Zm92.6-13.7a3.41,3.41,0,0,0,.3-0.36,3.33,3.33,0,0,0,.78-0.72,4.23,4.23,0,0,0,.49-3.78l-0.71-2.47,19,21-13.16,1.22a1.73,1.73,0,0,0-1.56,1.52l-1.34,11.44-18.88-20.93,1.47-7.17a2.17,2.17,0,0,1,.29-0.71,2.12,2.12,0,0,1,1.53-.18l7.71,2h0A4.12,4.12,0,0,0,1324.81,474.42ZM1255,459.88a1.31,1.31,0,0,1-.77-0.23,0.24,0.24,0,0,1,0-.07h0a1.58,1.58,0,0,1,.31-0.67l4.61-6.5a5.78,5.78,0,0,0,.56-1,5.51,5.51,0,0,0-2.12-6.89l-6.73-4.26a2,2,0,0,1-.45-0.37h0a0.52,0.52,0,0,1-.12-0.19,1.22,1.22,0,0,1,.63-0.51l3.64-1.86,3.45-1.76a5.5,5.5,0,0,0,2.38-7.52l-0.1-.18-4-6.9a1.62,1.62,0,0,1-.25-0.69,0.31,0.31,0,0,1,0-.07l0.08,0a1.66,1.66,0,0,1,.71-0.12l2.05,0,6,0.07a5.51,5.51,0,0,0,5.19-3.56c0-.07,0-0.14.05-0.2a5.61,5.61,0,0,0,.29-2l-0.32-8a0.83,0.83,0,0,1,.21-0.8,1.56,1.56,0,0,1,.7.23l5.75,3.11,1.26,0.68,0.26,0.12a5.59,5.59,0,0,0,2.39.56,5.45,5.45,0,0,0,3.76-1.5,5.65,5.65,0,0,0,1.22-1.67l3.42-7.19a2.35,2.35,0,0,1,.19-0.33,1.17,1.17,0,0,1,.25-0.28l0,0,0.13,0.07,0.1,0.08a2,2,0,0,1,.35.41l3,4.48,1.43,2.13a5.59,5.59,0,0,0,1.25,1.32,5.33,5.33,0,0,0,4.4,1,5.55,5.55,0,0,0,2.28-1l2.6-2,3.77-2.83a1.49,1.49,0,0,1,.67-0.33h0.05a1.28,1.28,0,0,1,.26.77l0.86,7.92a5.49,5.49,0,0,0,2.24,3.87,5.48,5.48,0,0,0,4.16,1L1325,415a1.71,1.71,0,0,1,.8,0,0.19,0.19,0,0,1,0,.06,1.52,1.52,0,0,1-.14.74l-2.91,7.41q-0.11.27-.18,0.54h0l0,0.12a5.45,5.45,0,0,0,.09,3.07,5.65,5.65,0,0,0,.25.64,5.43,5.43,0,0,0,.43.73,5.5,5.5,0,0,0,2.84,2.18l5.64,1.89,1.92,0.64a1.72,1.72,0,0,1,.61.32l0.08,0.09a0.82,0.82,0,0,1-.18.33,2.16,2.16,0,0,1-.3.32l-3.78,3.27-2.25,1.94a5.51,5.51,0,0,0-.38,8l5.52,5.75a1.35,1.35,0,0,1,.42.68h0l0,0v0h0a1.59,1.59,0,0,1-.68.29l-7.75,1.81a5.46,5.46,0,0,0-4,3.5v0a5.33,5.33,0,0,0-.25,1h0a3.75,3.75,0,0,0-.72,3.19l2.21,7.64h0l-7.59-2a5.68,5.68,0,0,0-.95-0.15c-0.16,0-.32,0-0.48,0h0a5.51,5.51,0,0,0-.86.07l-0.18,0a5.38,5.38,0,0,0-.72.19l-0.29.11-0.43.2a5.48,5.48,0,0,0-.54.31l-0.17.12a5.57,5.57,0,0,0-.75.64h0a5.52,5.52,0,0,0-2.32,3.48l-1.37,6.7a1.72,1.72,0,0,0,.13,1.05h0l-0.19-.11,0,0a2.44,2.44,0,0,1-.27-0.22l-5.9-5.36a5.59,5.59,0,0,0-1.46-.94,5.5,5.5,0,0,0-5.76.74,5.64,5.64,0,0,0-.8.8l-5,6.17a2.4,2.4,0,0,1-.19.21l-0.2.17,0,0h0a0.57,0.57,0,0,1-.2.09h0l-0.06,0h0a1.64,1.64,0,0,1-.37-0.63l-1.84-5a1.72,1.72,0,0,0,.4-1.8l-0.13-.35a5.52,5.52,0,0,0-4.49-3.62h0a5.67,5.67,0,0,0-.88-0.24h0a5.32,5.32,0,0,0-.95-0.09,5.51,5.51,0,0,0-1.11.11h0a5.62,5.62,0,0,0-1.07.34h0l-7,3c0-.07,0-0.13,0-0.21l1.06-7.89h0a5.51,5.51,0,0,0-4.77-6.24h0a5.52,5.52,0,0,0-.59-0.18,5,5,0,0,0-.86-0.16l-2.68-.22Zm7,4.62,1.75-.21a2.09,2.09,0,0,1,.44.4,2.15,2.15,0,0,1,.45,1.65l-1.05,7.89a4.31,4.31,0,0,0,.88,3.48,3.38,3.38,0,0,0,2.09,1.11,4.32,4.32,0,0,0,3.71,0l7.32-3.12a2.18,2.18,0,0,1,.85-0.18,2.14,2.14,0,0,1,.88,1.08l0.09,0.24-26.65,24-0.4-12a1.73,1.73,0,0,0-1.59-1.66l-12.79-1Z" transform="translate(-1232.12 -395.92)"/></g></svg>